<svg width="237" height="80" viewBox="0 0 237 80" fill="none" xmlns="http://www.w3.org/2000/svg">
<rect width="237" height="80" rx="20" fill="white"/>
<path d="M73.648 28.2V25.878H77.986V39H75.394V28.2H73.648ZM81.2675 36.156C82.4195 35.196 83.3375 34.398 84.0215 33.762C84.7055 33.114 85.2755 32.442 85.7315 31.746C86.1875 31.05 86.4155 30.366 86.4155 29.694C86.4155 29.082 86.2715 28.602 85.9835 28.254C85.6955 27.906 85.2515 27.732 84.6515 27.732C84.0515 27.732 83.5895 27.936 83.2655 28.344C82.9415 28.74 82.7735 29.286 82.7615 29.982H80.3135C80.3615 28.542 80.7875 27.45 81.5915 26.706C82.4075 25.962 83.4395 25.59 84.6875 25.59C86.0555 25.59 87.1055 25.956 87.8375 26.688C88.5695 27.408 88.9355 28.362 88.9355 29.55C88.9355 30.486 88.6835 31.38 88.1795 32.232C87.6755 33.084 87.0995 33.828 86.4515 34.464C85.8035 35.088 84.9575 35.844 83.9135 36.732H89.2235V38.82H80.3315V36.948L81.2675 36.156ZM101.868 39L99.0965 34.104H97.9085V39H95.3885V26.436H100.104C101.076 26.436 101.904 26.61 102.588 26.958C103.272 27.294 103.782 27.756 104.118 28.344C104.466 28.92 104.64 29.568 104.64 30.288C104.64 31.116 104.4 31.866 103.92 32.538C103.44 33.198 102.726 33.654 101.778 33.906L104.784 39H101.868ZM97.9085 32.214H100.014C100.698 32.214 101.208 32.052 101.544 31.728C101.88 31.392 102.048 30.93 102.048 30.342C102.048 29.766 101.88 29.322 101.544 29.01C101.208 28.686 100.698 28.524 100.014 28.524H97.9085V32.214ZM116.19 33.798C116.19 34.158 116.166 34.482 116.118 34.77H108.828C108.888 35.49 109.14 36.054 109.584 36.462C110.028 36.87 110.574 37.074 111.222 37.074C112.158 37.074 112.824 36.672 113.22 35.868H115.938C115.65 36.828 115.098 37.62 114.282 38.244C113.466 38.856 112.464 39.162 111.276 39.162C110.316 39.162 109.452 38.952 108.684 38.532C107.928 38.1 107.334 37.494 106.902 36.714C106.482 35.934 106.272 35.034 106.272 34.014C106.272 32.982 106.482 32.076 106.902 31.296C107.322 30.516 107.91 29.916 108.666 29.496C109.422 29.076 110.292 28.866 111.276 28.866C112.224 28.866 113.07 29.07 113.814 29.478C114.57 29.886 115.152 30.468 115.56 31.224C115.98 31.968 116.19 32.826 116.19 33.798ZM113.58 33.078C113.568 32.43 113.334 31.914 112.878 31.53C112.422 31.134 111.864 30.936 111.204 30.936C110.58 30.936 110.052 31.128 109.62 31.512C109.2 31.884 108.942 32.406 108.846 33.078H113.58ZM121.845 39.162C121.029 39.162 120.297 39.018 119.649 38.73C119.001 38.43 118.485 38.028 118.101 37.524C117.729 37.02 117.525 36.462 117.489 35.85H120.027C120.075 36.234 120.261 36.552 120.585 36.804C120.921 37.056 121.335 37.182 121.827 37.182C122.307 37.182 122.679 37.086 122.943 36.894C123.219 36.702 123.357 36.456 123.357 36.156C123.357 35.832 123.189 35.592 122.853 35.436C122.529 35.268 122.007 35.088 121.287 34.896C120.543 34.716 119.931 34.53 119.451 34.338C118.983 34.146 118.575 33.852 118.227 33.456C117.891 33.06 117.723 32.526 117.723 31.854C117.723 31.302 117.879 30.798 118.191 30.342C118.515 29.886 118.971 29.526 119.559 29.262C120.159 28.998 120.861 28.866 121.665 28.866C122.853 28.866 123.801 29.166 124.509 29.766C125.217 30.354 125.607 31.152 125.679 32.16H123.267C123.231 31.764 123.063 31.452 122.763 31.224C122.475 30.984 122.085 30.864 121.593 30.864C121.137 30.864 120.783 30.948 120.531 31.116C120.291 31.284 120.171 31.518 120.171 31.818C120.171 32.154 120.339 32.412 120.675 32.592C121.011 32.76 121.533 32.934 122.241 33.114C122.961 33.294 123.555 33.48 124.023 33.672C124.491 33.864 124.893 34.164 125.229 34.572C125.577 34.968 125.757 35.496 125.769 36.156C125.769 36.732 125.607 37.248 125.283 37.704C124.971 38.16 124.515 38.52 123.915 38.784C123.327 39.036 122.637 39.162 121.845 39.162ZM130.772 31.098V35.922C130.772 36.258 130.85 36.504 131.006 36.66C131.174 36.804 131.45 36.876 131.834 36.876H133.004V39H131.42C129.296 39 128.234 37.968 128.234 35.904V31.098H127.046V29.028H128.234V26.562H130.772V29.028H133.004V31.098H130.772ZM134.168 33.978C134.168 32.97 134.366 32.076 134.762 31.296C135.17 30.516 135.716 29.916 136.4 29.496C137.096 29.076 137.87 28.866 138.722 28.866C139.466 28.866 140.114 29.016 140.666 29.316C141.23 29.616 141.68 29.994 142.016 30.45V29.028H144.554V39H142.016V37.542C141.692 38.01 141.242 38.4 140.666 38.712C140.102 39.012 139.448 39.162 138.704 39.162C137.864 39.162 137.096 38.946 136.4 38.514C135.716 38.082 135.17 37.476 134.762 36.696C134.366 35.904 134.168 34.998 134.168 33.978ZM142.016 34.014C142.016 33.402 141.896 32.88 141.656 32.448C141.416 32.004 141.092 31.668 140.684 31.44C140.276 31.2 139.838 31.08 139.37 31.08C138.902 31.08 138.47 31.194 138.074 31.422C137.678 31.65 137.354 31.986 137.102 32.43C136.862 32.862 136.742 33.378 136.742 33.978C136.742 34.578 136.862 35.106 137.102 35.562C137.354 36.006 137.678 36.348 138.074 36.588C138.482 36.828 138.914 36.948 139.37 36.948C139.838 36.948 140.276 36.834 140.684 36.606C141.092 36.366 141.416 36.03 141.656 35.598C141.896 35.154 142.016 34.626 142.016 34.014ZM156.429 29.028V39H153.891V37.74C153.567 38.172 153.141 38.514 152.613 38.766C152.097 39.006 151.533 39.126 150.921 39.126C150.141 39.126 149.451 38.964 148.851 38.64C148.251 38.304 147.777 37.818 147.429 37.182C147.093 36.534 146.925 35.766 146.925 34.878V29.028H149.445V34.518C149.445 35.31 149.643 35.922 150.039 36.354C150.435 36.774 150.975 36.984 151.659 36.984C152.355 36.984 152.901 36.774 153.297 36.354C153.693 35.922 153.891 35.31 153.891 34.518V29.028H156.429ZM161.436 30.576C161.76 30.048 162.18 29.634 162.696 29.334C163.224 29.034 163.824 28.884 164.496 28.884V31.53H163.83C163.038 31.53 162.438 31.716 162.03 32.088C161.634 32.46 161.436 33.108 161.436 34.032V39H158.916V29.028H161.436V30.576ZM165.545 33.978C165.545 32.97 165.743 32.076 166.139 31.296C166.547 30.516 167.093 29.916 167.777 29.496C168.473 29.076 169.247 28.866 170.099 28.866C170.843 28.866 171.491 29.016 172.043 29.316C172.607 29.616 173.057 29.994 173.393 30.45V29.028H175.931V39H173.393V37.542C173.069 38.01 172.619 38.4 172.043 38.712C171.479 39.012 170.825 39.162 170.081 39.162C169.241 39.162 168.473 38.946 167.777 38.514C167.093 38.082 166.547 37.476 166.139 36.696C165.743 35.904 165.545 34.998 165.545 33.978ZM173.393 34.014C173.393 33.402 173.273 32.88 173.033 32.448C172.793 32.004 172.469 31.668 172.061 31.44C171.653 31.2 171.215 31.08 170.747 31.08C170.279 31.08 169.847 31.194 169.451 31.422C169.055 31.65 168.731 31.986 168.479 32.43C168.239 32.862 168.119 33.378 168.119 33.978C168.119 34.578 168.239 35.106 168.479 35.562C168.731 36.006 169.055 36.348 169.451 36.588C169.859 36.828 170.291 36.948 170.747 36.948C171.215 36.948 171.653 36.834 172.061 36.606C172.469 36.366 172.793 36.03 173.033 35.598C173.273 35.154 173.393 34.626 173.393 34.014ZM183.918 28.884C185.106 28.884 186.066 29.262 186.798 30.018C187.53 30.762 187.896 31.806 187.896 33.15V39H185.376V33.492C185.376 32.7 185.178 32.094 184.782 31.674C184.386 31.242 183.846 31.026 183.162 31.026C182.466 31.026 181.914 31.242 181.506 31.674C181.11 32.094 180.912 32.7 180.912 33.492V39H178.392V29.028H180.912V30.27C181.248 29.838 181.674 29.502 182.19 29.262C182.718 29.01 183.294 28.884 183.918 28.884ZM193.227 31.098V35.922C193.227 36.258 193.305 36.504 193.461 36.66C193.629 36.804 193.905 36.876 194.289 36.876H195.459V39H193.875C191.751 39 190.689 37.968 190.689 35.904V31.098H189.501V29.028H190.689V26.562H193.227V29.028H195.459V31.098H193.227Z" fill="#363636"/>
<path d="M75.016 46.636V55H73.924V46.636H75.016ZM80.0811 48.304C80.8811 48.304 81.5291 48.548 82.0251 49.036C82.5211 49.516 82.7691 50.212 82.7691 51.124V55H81.6891V51.28C81.6891 50.624 81.5251 50.124 81.1971 49.78C80.8691 49.428 80.4211 49.252 79.8531 49.252C79.2771 49.252 78.8171 49.432 78.4731 49.792C78.1371 50.152 77.9691 50.676 77.9691 51.364V55H76.8771V48.424H77.9691V49.36C78.1851 49.024 78.4771 48.764 78.8451 48.58C79.2211 48.396 79.6331 48.304 80.0811 48.304ZM93.6081 46.636L90.8841 51.844V55H89.7921V51.844L87.0561 46.636H88.2681L90.3321 50.872L92.3961 46.636H93.6081ZM97.6279 55.108C97.0119 55.108 96.4519 54.968 95.9479 54.688C95.4519 54.408 95.0599 54.012 94.7719 53.5C94.4919 52.98 94.3519 52.38 94.3519 51.7C94.3519 51.028 94.4959 50.436 94.7839 49.924C95.0799 49.404 95.4799 49.008 95.9839 48.736C96.4879 48.456 97.0519 48.316 97.6759 48.316C98.2999 48.316 98.8639 48.456 99.3679 48.736C99.8719 49.008 100.268 49.4 100.556 49.912C100.852 50.424 101 51.02 101 51.7C101 52.38 100.848 52.98 100.544 53.5C100.248 54.012 99.8439 54.408 99.3319 54.688C98.8199 54.968 98.2519 55.108 97.6279 55.108ZM97.6279 54.148C98.0199 54.148 98.3879 54.056 98.7319 53.872C99.0759 53.688 99.3519 53.412 99.5599 53.044C99.7759 52.676 99.8839 52.228 99.8839 51.7C99.8839 51.172 99.7799 50.724 99.5719 50.356C99.3639 49.988 99.0919 49.716 98.7559 49.54C98.4199 49.356 98.0559 49.264 97.6639 49.264C97.2639 49.264 96.8959 49.356 96.5599 49.54C96.2319 49.716 95.9679 49.988 95.7679 50.356C95.5679 50.724 95.4679 51.172 95.4679 51.7C95.4679 52.236 95.5639 52.688 95.7559 53.056C95.9559 53.424 96.2199 53.7 96.5479 53.884C96.8759 54.06 97.2359 54.148 97.6279 54.148ZM108.268 48.424V55H107.176V54.028C106.968 54.364 106.676 54.628 106.3 54.82C105.932 55.004 105.524 55.096 105.076 55.096C104.564 55.096 104.104 54.992 103.696 54.784C103.288 54.568 102.964 54.248 102.724 53.824C102.492 53.4 102.376 52.884 102.376 52.276V48.424H103.456V52.132C103.456 52.78 103.62 53.28 103.948 53.632C104.276 53.976 104.724 54.148 105.292 54.148C105.876 54.148 106.336 53.968 106.672 53.608C107.008 53.248 107.176 52.724 107.176 52.036V48.424H108.268ZM111.204 49.492C111.396 49.116 111.668 48.824 112.02 48.616C112.38 48.408 112.816 48.304 113.328 48.304V49.432H113.04C111.816 49.432 111.204 50.096 111.204 51.424V55H110.112V48.424H111.204V49.492ZM117.379 51.7C117.379 51.02 117.515 50.428 117.787 49.924C118.059 49.412 118.435 49.016 118.915 48.736C119.403 48.456 119.959 48.316 120.583 48.316C121.391 48.316 122.055 48.512 122.575 48.904C123.103 49.296 123.451 49.84 123.619 50.536H122.443C122.331 50.136 122.111 49.82 121.783 49.588C121.463 49.356 121.063 49.24 120.583 49.24C119.959 49.24 119.455 49.456 119.071 49.888C118.687 50.312 118.495 50.916 118.495 51.7C118.495 52.492 118.687 53.104 119.071 53.536C119.455 53.968 119.959 54.184 120.583 54.184C121.063 54.184 121.463 54.072 121.783 53.848C122.103 53.624 122.323 53.304 122.443 52.888H123.619C123.443 53.56 123.091 54.1 122.563 54.508C122.035 54.908 121.375 55.108 120.583 55.108C119.959 55.108 119.403 54.968 118.915 54.688C118.435 54.408 118.059 54.012 117.787 53.5C117.515 52.988 117.379 52.388 117.379 51.7ZM125.64 47.356C125.432 47.356 125.256 47.284 125.112 47.14C124.968 46.996 124.896 46.82 124.896 46.612C124.896 46.404 124.968 46.228 125.112 46.084C125.256 45.94 125.432 45.868 125.64 45.868C125.84 45.868 126.008 45.94 126.144 46.084C126.288 46.228 126.36 46.404 126.36 46.612C126.36 46.82 126.288 46.996 126.144 47.14C126.008 47.284 125.84 47.356 125.64 47.356ZM126.168 48.424V55H125.076V48.424H126.168ZM129.361 49.324V53.2C129.361 53.52 129.429 53.748 129.565 53.884C129.701 54.012 129.937 54.076 130.273 54.076H131.077V55H130.093C129.485 55 129.029 54.86 128.725 54.58C128.421 54.3 128.269 53.84 128.269 53.2V49.324H127.417V48.424H128.269V46.768H129.361V48.424H131.077V49.324H129.361ZM138.065 48.424L134.105 58.096H132.977L134.273 54.928L131.621 48.424H132.833L134.897 53.752L136.937 48.424H138.065Z" fill="#787878"/>
<rect x="20" y="20" width="40" height="40" rx="20" fill="#F29F05"/>
<path d="M40 30.375C36.2046 30.375 33.125 33.1469 33.125 36.5625C33.125 42.0625 40 49.625 40 49.625C40 49.625 46.875 42.0625 46.875 36.5625C46.875 33.1469 43.7954 30.375 40 30.375ZM40 40C39.4561 40 38.9244 39.8387 38.4722 39.5365C38.0199 39.2344 37.6675 38.8049 37.4593 38.3024C37.2512 37.7999 37.1967 37.2469 37.3028 36.7135C37.4089 36.1801 37.6709 35.6901 38.0555 35.3055C38.4401 34.9209 38.9301 34.6589 39.4635 34.5528C39.9969 34.4467 40.5499 34.5012 41.0524 34.7093C41.5549 34.9175 41.9844 35.2699 42.2865 35.7222C42.5887 36.1744 42.75 36.7061 42.75 37.25C42.7492 37.9791 42.4592 38.6781 41.9437 39.1937C41.4281 39.7092 40.7291 39.9992 40 40Z" fill="white"/>
</svg>
