<svg width="150" height="150" viewBox="0 0 150 150" fill="none" xmlns="http://www.w3.org/2000/svg">
<rect width="150" height="150" rx="75" fill="white"/>
<path d="M145.52 132.436L121.674 132.74L139.589 109.337L145.52 132.436Z" fill="white"/>
<path d="M47.9375 63.2257H37.3125C34.379 63.2257 32 65.6047 32 68.3888V105.427C32 108.36 34.379 110.59 37.3125 110.59H47.9375C50.871 110.59 53.25 108.211 53.25 105.427V68.5382C53.25 65.7491 50.876 63.2257 47.9375 63.2257ZM117 69.1856C117 63.0613 112.011 58.0759 105.882 58.0759H89.3036C90.8857 53.9288 91.7656 50.3429 91.7656 48.2345C91.7656 42.6231 87.416 36.8159 80.1346 36.8159C72.3966 36.8159 70.2799 42.2015 68.5782 46.5278C63.3222 59.8921 58.5625 57.5496 58.5625 62.0453C58.5625 64.177 60.2824 66.028 62.5502 66.028C63.4539 66.0287 64.3308 65.7206 65.0355 65.1548C77.7788 54.9664 74.6594 44.7847 80.1346 44.7847C82.8041 44.7847 83.7969 46.9014 83.7969 48.2361C83.7969 49.4653 82.5362 54.802 79.5552 60.1212C79.2215 60.7154 79.0462 61.3854 79.0462 62.0669C79.0462 64.3778 80.9437 65.9019 83.0305 65.9019H105.874C107.62 66.0479 109.031 67.4591 109.031 69.1856C109.031 70.8141 107.742 72.1789 106.098 72.2918C103.996 72.4346 102.386 74.1844 102.386 76.2662C102.386 78.8345 104.277 78.9142 104.277 81.0657C104.277 85.2775 98.461 83.1144 98.461 88.0633C98.461 89.926 99.5222 90.2265 99.5222 91.7571C99.5222 95.519 94.5799 94.0415 94.5799 98.504C94.5799 99.2536 94.7642 99.4936 94.7642 100.074C94.7642 101.809 93.3504 103.22 91.6149 103.22H82.8941C78.6408 103.22 74.424 101.814 71.024 99.267L64.9378 94.6999C64.2501 94.1811 63.412 93.9007 62.5505 93.9012C60.2512 93.9012 58.5612 95.7905 58.5612 97.8922C58.5612 99.102 59.111 100.286 60.1543 101.068L66.2421 105.637C71.0137 109.212 76.9238 111.188 82.9004 111.188H91.6212C97.4865 111.188 102.306 106.624 102.711 100.861C105.661 98.8311 107.497 95.4643 107.497 91.7588C107.497 91.2521 107.461 90.7461 107.391 90.2444C110.353 88.2273 112.252 84.8356 112.252 81.0671C112.252 80.1923 112.147 79.3206 111.941 78.4706C114.991 76.3409 117 73.0372 117 69.1856Z" fill="#F29F05"/>
</svg>
